<svg id="visual" viewBox="0 0 960 540" width="960" height="540" xmlns="http://www.w3.org/2000/svg" xmlns:xlink="http://www.w3.org/1999/xlink" version="1.1"><rect x="0" y="0" width="960" height="540" fill="#fff"></rect><defs><linearGradient id="grad1_0" x1="43.8%" y1="0%" x2="100%" y2="100%"><stop offset="14.444444444444446%" stop-color="#ffffff" stop-opacity="1"></stop><stop offset="85.55555555555554%" stop-color="#ffffff" stop-opacity="1"></stop></linearGradient></defs><defs><linearGradient id="grad2_0" x1="0%" y1="0%" x2="56.3%" y2="100%"><stop offset="14.444444444444446%" stop-color="#ffffff" stop-opacity="1"></stop><stop offset="85.55555555555554%" stop-color="#ffffff" stop-opacity="1"></stop></linearGradient></defs><g transform="translate(960, 0)"><path d="M0 243C-44.7 237.9 -89.4 232.8 -121.5 210.4C-153.6 188.1 -173.2 148.5 -191.4 110.5C-209.6 72.5 -226.3 36.3 -243 0L0 0Z" fill="#106ebe"></path></g><g transform="translate(0, 540)"><path d="M0 -243C33.9 -222.1 67.7 -201.2 106 -183.6C144.3 -166 186.9 -151.6 210.4 -121.5C234 -91.4 238.5 -45.7 243 0L0 0Z" fill="#106ebe"></path></g></svg>